<svg preserveAspectRatio="xMidYMid meet" data-bbox="39 70 422.691 359.438" xmlns="http://www.w3.org/2000/svg" viewBox="0 0 500 500" height="500" width="500" data-type="ugc" role="presentation" aria-hidden="true" aria-label="">
    <g>
        <path fill="url(#e3560390-9b7a-431d-ba1c-3b8a89d886de_comp-kkpgxgqu)" d="M299.138 231.748a82.613 82.613 0 0 1-26.329 80.22h114.578a179.28 179.28 0 0 0 11.051-62.18C398.438 150.513 317.915 70 218.582 70a178.346 178.346 0 0 0-103.277 32.86 157.74 157.74 0 0 1 118.886 26.01 157.653 157.653 0 0 1 42.803 44.924 157.588 157.588 0 0 1 22.144 57.954" clip-rule="evenodd" fill-rule="evenodd"></path>
        <path fill="url(#20116a6f-7bd6-4f72-9ac4-5dbb372691dc_comp-kkpgxgqu)" d="M149.915 204.067a82.467 82.467 0 0 1 36.504-30.353 82.323 82.323 0 0 1 47.162-5.175 82.39 82.39 0 0 1 42.2 21.718 82.591 82.591 0 0 1 23.259 41.416 157.83 157.83 0 0 0-22.103-57.995 157.585 157.585 0 0 0-42.74-44.957 157.312 157.312 0 0 0-56.752-24.952 157.197 157.197 0 0 0-61.971-1.08c-46.246 32.741-76.473 86.728-76.473 146.999-.172 46.685 17.856 91.594 50.246 125.166s76.584 53.156 123.175 54.584a146.71 146.71 0 0 1-54.884-38.371 147.008 147.008 0 0 1-32.154-58.794 147.162 147.162 0 0 1-2.73-66.981 147.041 147.041 0 0 1 27.261-61.225" clip-rule="evenodd" fill-rule="evenodd"></path>
        <path fill="#573CEA" d="M203.617 168.485a82.565 82.565 0 0 1 60.407 12.375 82.663 82.663 0 0 1 35.016 50.787 157.757 157.757 0 0 0-22.132-57.986 157.663 157.663 0 0 0-42.78-44.948 157.55 157.55 0 0 0-56.801-24.945 157.496 157.496 0 0 0-62.022-1.08s85.662 2.686 88.312 65.797Z" clip-rule="evenodd" fill-rule="evenodd"></path>
        <path fill="url(#518d76be-8e61-4ad3-be7f-3745c52ab83e_comp-kkpgxgqu)" d="M241.811 134.134a157.804 157.804 0 0 0-126.201-31.449c-46.328 32.741-76.609 86.729-76.609 147.001a179.154 179.154 0 0 0 50.335 125.167 179.228 179.228 0 0 0 123.394 54.585 146.936 146.936 0 0 1-58.894-42.897 146.889 146.889 0 0 1-31.042-65.909 115.107 115.107 0 0 1-10.655-138.007 115.14 115.14 0 0 1 56.733-45.905 115.17 115.17 0 0 1 72.939-2.586Z" clip-rule="evenodd" fill-rule="evenodd"></path>
        <path fill="url(#bde7aafd-1f2b-473d-a4cb-af0279bc3aab_comp-kkpgxgqu)" d="M211.612 332.168a82.345 82.345 0 0 1-67.767-45.926 82.379 82.379 0 0 1 5.327-81.704 146.61 146.61 0 0 0 7.615 186.554 146.556 146.556 0 0 0 54.825 38.279l250.079.067-80.191-97.044-169.888-.226Z" clip-rule="evenodd" fill-rule="evenodd"></path>
        <path fill="#C51F5B" d="M145.228 289.024a82.535 82.535 0 0 1 3.967-84.486 146.756 146.756 0 0 0-25.082 51.559 146.796 146.796 0 0 0 15.352 111.424 146.664 146.664 0 0 0 38.089 42.84s-59.078-48.831-32.335-121.304" clip-rule="evenodd" fill-rule="evenodd"></path>
        <path fill-opacity=".38" fill="#FFE8AC" d="M121.346 320.067a147.936 147.936 0 0 0 31.007 66.211 146.815 146.815 0 0 0 58.828 43.092l250.51.068-40.173-48.89-163.709-4.215c-68.919-1.762-92.442-7.477-136.48-56.333" clip-rule="evenodd" fill-rule="evenodd"></path>
        <path fill="url(#f6b7d403-c27d-4d63-aa4c-31cfd3274e03_comp-kkpgxgqu)" d="M240.467 134.293a112.308 112.308 0 0 1 57.61 17.439 112.243 112.243 0 0 1 40.319 44.676 112.19 112.19 0 0 1-9.293 115.56h57.281a179.279 179.279 0 0 0 11.05-62.18C397.434 150.513 316.911 70 217.578 70a178.346 178.346 0 0 0-103.277 32.86 157.789 157.789 0 0 1 126.166 31.433" clip-rule="evenodd" fill-rule="evenodd"></path>
        <path fill="url(#31512139-9bfe-4a86-9c72-c0467deea685_comp-kkpgxgqu)" d="M178.815 322.602a82.43 82.43 0 0 1-25.964-21.945 82.388 82.388 0 0 1-16.186-64.522 82.376 82.376 0 0 1 12.533-31.597 146.601 146.601 0 0 0-24.526 127.938 146.616 146.616 0 0 0 32.147 58.672 146.68 146.68 0 0 0 54.872 38.29s-65.132-50.24-32.893-106.827" clip-rule="evenodd" fill-rule="evenodd"></path>
        <path fill="#0C1ECE" d="M253.226 174.247a81.707 81.707 0 0 1 29.524 22.813 81.614 81.614 0 0 1 16.29 33.549 155.722 155.722 0 0 0-57.023-96.313 155.996 155.996 0 0 0-85.547-33.171c1.452.198 78.52 11.023 96.756 73.122Z" clip-rule="evenodd" fill-rule="evenodd"></path>
        <defs fill="none">
            <linearGradient gradientUnits="userSpaceOnUse" y2="396.305" x2="398.438" y1="84.056" x1="115.305" id="e3560390-9b7a-431d-ba1c-3b8a89d886de_comp-kkpgxgqu">
                <stop stop-color="#22F0A6"></stop>
                <stop stop-color="#0020C5" offset="1"></stop>
            </linearGradient>
            <linearGradient gradientUnits="userSpaceOnUse" y2="264.784" x2="299.032" y1="264.784" x1="39.001" id="20116a6f-7bd6-4f72-9ac4-5dbb372691dc_comp-kkpgxgqu">
                <stop stop-color="#114FEE"></stop>
                <stop stop-color="#F15AC3" offset="1"></stop>
            </linearGradient>
            <linearGradient gradientUnits="userSpaceOnUse" y2="10.261" x2="111.791" y1="447.51" x1="86.189" id="518d76be-8e61-4ad3-be7f-3745c52ab83e_comp-kkpgxgqu">
                <stop stop-color="#FFBCD8"></stop>
                <stop stop-opacity="0" stop-color="#FFBCD8" offset="1"></stop>
            </linearGradient>
            <linearGradient gradientUnits="userSpaceOnUse" y2="375.221" x2="432.072" y1="340.582" x1="-14.213" id="bde7aafd-1f2b-473d-a4cb-af0279bc3aab_comp-kkpgxgqu">
                <stop stop-color="#B42E4E"></stop>
                <stop stop-color="#F2CF53" offset="1"></stop>
            </linearGradient>
            <linearGradient gradientUnits="userSpaceOnUse" y2="361.667" x2="410.486" y1="56.446" x1="120.827" id="f6b7d403-c27d-4d63-aa4c-31cfd3274e03_comp-kkpgxgqu">
                <stop stop-color="#60F8E0"></stop>
                <stop stop-opacity="0" stop-color="#18F095" offset="1"></stop>
            </linearGradient>
            <linearGradient gradientUnits="userSpaceOnUse" y2="479.137" x2="179.562" y1="204.538" x1="165.506" id="31512139-9bfe-4a86-9c72-c0467deea685_comp-kkpgxgqu">
                <stop stop-color="#AA0B4E"></stop>
                <stop stop-opacity="0" stop-color="#D1526D" offset="1"></stop>
            </linearGradient>
        </defs>
    </g>
</svg>