<svg width="12" height="12" viewBox="0 0 12 12" fill="none" xmlns="http://www.w3.org/2000/svg">
<g clip-path="url(#clip0_3_1064)">
<path d="M11.9687 4.3688C11.9303 4.24989 11.8578 4.1449 11.7602 4.06692C11.6625 3.98894 11.5441 3.94141 11.4197 3.93028L7.95613 3.61576L6.58657 0.410133C6.48555 0.175213 6.25558 0.0231934 6.00005 0.0231934C5.74453 0.0231934 5.51453 0.175236 5.41356 0.410719L4.04398 3.61578L0.5799 3.93028C0.455588 3.94166 0.337352 3.98929 0.23985 4.06724C0.142349 4.14519 0.0698707 4.25005 0.0314016 4.3688C-0.0476082 4.61181 0.0253546 4.87832 0.217899 5.04633L2.83593 7.34233L2.06393 10.743C2.00744 10.993 2.10448 11.2515 2.31195 11.4014C2.42345 11.482 2.55393 11.523 2.68548 11.523C2.79892 11.523 2.91143 11.4924 3.01245 11.432L6.00005 9.64641L8.98658 11.432C9.20512 11.5635 9.48061 11.5515 9.68762 11.4014C9.78896 11.3281 9.8665 11.2265 9.9106 11.1095C9.95469 10.9924 9.9634 10.8649 9.93564 10.743L9.16366 7.34233L11.7817 5.0468C11.8758 4.96454 11.9438 4.85643 11.977 4.7359C12.0103 4.61536 12.0074 4.48771 11.9687 4.3688Z" fill="#40A040"/>
</g>
<defs>
<clipPath id="clip0_3_1064">
<rect width="12" height="12" fill="white"/>
</clipPath>
</defs>
</svg>
