<svg width="16" height="16" viewBox="0 0 16 16" fill="none" xmlns="http://www.w3.org/2000/svg">
<path d="M10.3866 7.99996C10.3866 9.31996 9.31992 10.3866 7.99992 10.3866C6.67992 10.3866 5.61328 9.31996 5.61328 7.99996C5.61328 6.67996 6.67992 5.61328 7.99992 5.61328C9.31992 5.61328 10.3866 6.67996 10.3866 7.99996Z" stroke="#292D32" stroke-width="1.5" stroke-linecap="round" stroke-linejoin="round"/>
<path d="M7.99992 13.5133C10.3532 13.5133 12.5466 12.1267 14.0733 9.72667C14.6733 8.78667 14.6733 7.20667 14.0733 6.26665C12.5466 3.86665 10.3532 2.47998 7.99992 2.47998C5.64656 2.47998 3.45323 3.86665 1.92656 6.26665C1.32656 7.20667 1.32656 8.78667 1.92656 9.72667C3.45323 12.1267 5.64656 13.5133 7.99992 13.5133Z" stroke="#292D32" stroke-width="1.5" stroke-linecap="round" stroke-linejoin="round"/>
</svg>
