<svg width="20" height="15" viewBox="0 0 20 15" fill="none" xmlns="http://www.w3.org/2000/svg">
<path d="M20 14.1667C20 14.6271 19.6271 15 19.1667 15H0.833333C0.372917 15 0 14.6271 0 14.1667V0.833333C0 0.372917 0.372917 0 0.833333 0H19.1667C19.6271 0 20 0.372917 20 0.833333V14.1667Z" fill="#F83142"/>
<path d="M13.8533 6.01748C13.9759 5.89053 13.886 5.6785 13.7095 5.6785H11.3634C11.2853 5.6785 11.2144 5.63311 11.1817 5.56224L10.1818 3.39367C10.1104 3.2387 9.89017 3.23865 9.81864 3.39359L8.81747 5.56233C8.78477 5.63315 8.71389 5.6785 8.63588 5.6785H6.29072C6.11418 5.6785 6.02422 5.89053 6.1469 6.01748L7.89402 7.82551C7.94182 7.87498 7.96085 7.94554 7.94439 8.01233L7.28705 10.6801C7.24505 10.8506 7.42737 10.9886 7.58003 10.9019L9.90154 9.58312C9.96281 9.54832 10.0379 9.54832 10.0991 9.58313L12.4201 10.9018C12.5728 10.9886 12.7551 10.8506 12.7131 10.6801L12.0558 8.01233C12.0393 7.94554 12.0584 7.87498 12.1062 7.82551L13.8533 6.01748Z" fill="#FFE040"/>
</svg>
